<svg width="1087" height="544" viewBox="0 0 1087 544" fill="none" xmlns="http://www.w3.org/2000/svg">
<path d="M706.744 -182.5L707.74 -182.412L706.744 -182.5ZM857.315 -239.754L856.84 -238.874L857.315 -239.754ZM982.881 -221.413L982.099 -220.789L982.099 -220.788L982.881 -221.413ZM835.291 -21.1754L834.662 -20.3985L835.291 -21.1754ZM712.072 -46.8907L711.843 -45.9174L712.072 -46.8907ZM983.077 -221.167L983.859 -221.791L983.858 -221.791L983.077 -221.167ZM979.887 -91.3685L980.267 -90.4439L979.887 -91.3685ZM647.391 -203.356L648.387 -203.269L647.391 -203.356ZM865.524 -286.302L865.05 -285.421L865.524 -286.302ZM1047.43 -259.73L1046.65 -259.106L1046.65 -259.106L1047.43 -259.73ZM833.619 30.3576L832.989 31.1345L833.619 30.3576ZM655.11 -6.89669L654.88 -5.92335L655.11 -6.89669ZM1047.72 -259.373L1048.5 -259.998L1048.5 -259.998L1047.72 -259.373ZM1043.1 -71.3323L1043.48 -70.4076L1043.1 -71.3323ZM588.347 -225.982L587.351 -226.07L588.347 -225.982ZM874.045 -334.618L873.57 -333.738L874.045 -334.618ZM1112.3 -299.816L1111.52 -299.192L1111.52 -299.192L1112.3 -299.816ZM832.257 80.1212L831.628 80.898L832.257 80.1212ZM598.457 31.3279L598.228 32.3012L598.457 31.3279ZM1112.67 -299.35L1113.45 -299.974L1113.45 -299.974L1112.67 -299.35ZM1106.62 -53.0657L1107 -52.141L1106.62 -53.0657ZM528.994 -246.838L529.99 -246.751L528.994 -246.838ZM882.255 -381.166L882.729 -382.046L882.255 -381.166ZM1176.85 -338.133L1177.63 -338.758L1177.63 -338.758L1176.85 -338.133ZM830.585 131.654L831.215 130.877L830.585 131.654ZM541.494 71.3221L541.265 72.2953L541.494 71.3221ZM1177.31 -337.556L1176.53 -336.932L1176.53 -336.932L1177.31 -337.556ZM1169.83 -33.0295L1169.45 -33.9542L1169.83 -33.0295ZM890.464 -427.713L889.99 -426.833L890.464 -427.713ZM1241.41 -376.451L1240.62 -375.826L1240.62 -375.826L1241.41 -376.451ZM828.913 183.187L828.283 183.964L828.913 183.187ZM484.531 111.316L484.302 112.289L484.531 111.316ZM1241.96 -375.763L1242.74 -376.387L1242.74 -376.387L1241.96 -375.763ZM1233.04 -12.9933L1233.42 -12.0687L1233.04 -12.9933ZM410.597 -290.32L409.601 -290.408L410.597 -290.32ZM898.985 -476.03L898.51 -475.15L898.985 -476.03ZM1306.27 -416.537L1307.05 -417.161L1306.27 -416.537ZM827.551 232.951L828.18 232.174L827.551 232.951ZM427.879 149.541L428.109 148.567L427.879 149.541ZM1306.91 -415.739L1306.13 -415.115L1306.91 -415.739ZM1296.56 5.27326L1296.18 4.34853L1296.56 5.27326ZM349.777 -313.258L350.774 -313.17L349.777 -313.258ZM905.729 -524.658L906.204 -525.539L905.729 -524.658ZM1369.36 -456.936L1370.14 -457.56L1370.14 -457.56L1369.36 -456.936ZM824.413 282.402L825.042 281.625L824.413 282.402ZM369.451 187.453L369.68 186.48L369.451 187.453ZM1370.08 -456.027L1369.3 -455.403L1369.3 -455.403L1370.08 -456.027ZM1358.3 23.228L1357.92 22.3033L1358.3 23.228ZM290.424 -334.114L291.42 -334.027L290.424 -334.114ZM913.939 -571.206L914.414 -572.086L913.939 -571.206ZM1433.91 -495.253L1433.13 -494.629L1433.13 -494.629L1433.91 -495.253ZM822.74 333.935L822.111 334.712L822.74 333.935ZM312.488 227.448L312.258 228.421L312.488 227.448ZM1434.73 -494.234L1435.51 -494.858L1435.51 -494.858L1434.73 -494.234ZM1421.51 43.2641L1421.13 42.3394L1421.51 43.2641ZM231.381 -356.74L230.385 -356.828L231.381 -356.74ZM922.459 -619.523L921.985 -618.642L922.459 -619.523ZM1498.78 -535.339L1499.56 -535.963L1499.56 -535.963L1498.78 -535.339ZM821.379 383.699L822.008 382.922L821.379 383.699ZM255.835 265.672L255.606 266.645L255.835 265.672ZM1499.68 -534.21L1498.9 -533.586L1498.9 -533.586L1499.68 -534.21ZM1485.03 61.5307L1485.42 62.4555L1485.03 61.5307ZM172.027 -377.596L173.023 -377.509L172.027 -377.596ZM930.669 -666.07L930.195 -665.19L930.669 -666.07ZM1563.33 -573.656L1562.55 -573.032L1562.55 -573.032L1563.33 -573.656ZM819.706 435.232L820.336 434.455L819.706 435.232ZM198.873 305.666L198.643 306.64L198.873 305.666ZM1564.32 -572.417L1565.1 -573.041L1565.1 -573.041L1564.32 -572.417ZM1548.24 81.5668L1548.63 82.4915L1548.24 81.5668ZM707.74 -182.412C710.893 -218.172 732.582 -240.612 761.259 -249.985C789.988 -259.374 825.752 -255.641 856.84 -238.874L857.789 -240.635C826.28 -257.628 789.95 -261.465 760.638 -251.886C731.276 -242.29 708.978 -219.222 705.748 -182.588L707.74 -182.412ZM856.84 -238.874C875.849 -228.622 890.473 -225.891 902.447 -226.743C914.403 -227.593 923.616 -232.013 931.727 -235.832C939.904 -239.681 946.814 -242.83 954.475 -241.668C962.108 -240.509 970.738 -235.01 982.099 -220.789L983.662 -222.037C972.2 -236.385 963.164 -242.372 954.775 -243.645C946.413 -244.914 938.945 -241.44 930.876 -237.641C922.742 -233.812 913.842 -229.558 902.306 -228.738C890.788 -227.919 876.541 -230.521 857.789 -240.635L856.84 -238.874ZM835.921 -21.9523C825.463 -30.4276 816.636 -35.3302 808.213 -38.1369C799.791 -40.9434 791.831 -41.6335 783.155 -41.7599C765.824 -42.0124 745.557 -40.026 712.302 -47.8641L711.843 -45.9174C745.37 -38.0154 765.933 -40.0106 783.126 -39.7601C791.713 -39.635 799.439 -38.9525 807.581 -36.2395C815.723 -33.5265 824.341 -28.7626 834.662 -20.3985L835.921 -21.9523ZM712.302 -47.8641C692.032 -52.6417 681.499 -58.9094 676.914 -66.4971C672.356 -74.0398 673.485 -83.2141 677.482 -94.3937C679.473 -99.9629 682.148 -105.958 685.107 -112.412C688.061 -118.855 691.296 -125.751 694.378 -133.075C700.545 -147.729 706.132 -164.166 707.74 -182.412L705.748 -182.588C704.166 -164.637 698.665 -148.418 692.534 -133.851C689.468 -126.565 686.252 -119.709 683.289 -113.246C680.331 -106.794 677.622 -100.727 675.598 -95.067C671.566 -83.7878 670.145 -73.8308 675.202 -65.4627C680.232 -57.1395 691.48 -50.7168 711.843 -45.9174L712.302 -47.8641ZM982.099 -220.788L982.296 -220.542L983.858 -221.791L983.662 -222.037L982.099 -220.788ZM982.296 -220.543C990.558 -210.201 999.483 -199.027 1006.98 -187.555C1014.49 -176.076 1020.52 -164.366 1023.05 -152.967C1025.57 -141.596 1024.59 -130.564 1018.11 -120.342C1011.62 -110.09 999.507 -100.528 979.506 -92.2932L980.267 -90.4439C1000.48 -98.7662 1013 -108.541 1019.8 -119.271C1026.62 -130.031 1027.61 -141.627 1025 -153.399C1022.4 -165.142 1016.22 -177.089 1008.66 -188.649C1001.1 -200.215 992.11 -211.462 983.859 -221.791L982.296 -220.543ZM979.506 -92.2932C938.878 -75.5649 922.674 -41.2991 906.818 -19.9087C898.841 -9.14746 891.075 -1.77767 880.502 -0.893046C869.873 -0.00366778 856.057 -5.63456 835.921 -21.9523L834.662 -20.3985C854.862 -4.0282 869.215 2.05839 880.669 1.10001C892.179 0.13694 900.41 -7.90622 908.424 -18.7177C924.551 -40.4727 940.309 -73.9915 980.267 -90.4439L979.506 -92.2932ZM648.387 -203.269C652.971 -255.271 684.529 -287.921 726.228 -301.549C767.978 -315.194 819.917 -309.763 865.05 -285.421L865.999 -287.182C820.445 -311.75 767.94 -317.285 725.607 -303.45C683.223 -289.598 651.056 -256.321 646.394 -203.444L648.387 -203.269ZM865.05 -285.421C892.531 -270.6 913.632 -266.673 930.877 -267.899C948.103 -269.124 961.38 -275.49 973.137 -281.025C984.958 -286.59 995.094 -291.225 1006.35 -289.517C1017.58 -287.813 1030.17 -279.737 1046.65 -259.106L1048.22 -260.354C1031.63 -281.112 1018.63 -289.676 1006.65 -291.494C994.693 -293.309 983.999 -288.349 972.285 -282.834C960.506 -277.289 947.542 -271.089 930.735 -269.894C913.948 -268.7 893.223 -272.499 865.999 -287.182L865.05 -285.421ZM834.249 29.5807C819.128 17.3274 806.388 10.256 794.249 6.21093C782.11 2.16604 770.631 1.16792 758.082 0.985092C733.005 0.619741 703.577 3.4995 655.339 -7.86999L654.88 -5.92335C703.39 5.51012 733.114 2.62158 758.053 2.9849C770.512 3.16645 781.758 4.1569 793.616 8.10839C805.475 12.0597 818.006 18.9924 832.989 31.1345L834.249 29.5807ZM655.339 -7.86999C625.952 -14.7963 610.533 -23.9112 603.791 -35.0687C597.076 -46.1811 598.777 -59.6477 604.575 -75.8662C607.466 -83.9547 611.349 -92.6557 615.636 -102.006C619.917 -111.344 624.6 -121.326 629.061 -131.928C637.987 -153.138 646.062 -176.901 648.387 -203.269L646.394 -203.444C644.096 -177.372 636.107 -153.827 627.218 -132.704C622.772 -122.139 618.109 -112.199 613.818 -102.839C609.532 -93.4915 605.616 -84.719 602.692 -76.5393C596.858 -60.2214 594.865 -45.9721 602.079 -34.0342C609.266 -22.1414 625.401 -12.8715 654.88 -5.92335L655.339 -7.86999ZM1046.65 -259.106L1046.94 -258.749L1048.5 -259.998L1048.22 -260.354L1046.65 -259.106ZM1046.94 -258.749C1058.9 -243.77 1071.85 -227.566 1082.73 -210.925C1093.61 -194.277 1102.39 -177.259 1106.07 -160.668C1109.74 -144.105 1108.32 -127.996 1098.86 -113.066C1089.38 -98.1062 1071.74 -84.2069 1042.72 -72.257L1043.48 -70.4076C1072.71 -82.4448 1090.76 -96.5576 1100.55 -111.995C1110.35 -127.462 1111.78 -144.136 1108.02 -161.1C1104.27 -178.036 1095.34 -195.29 1084.4 -212.019C1073.46 -228.754 1060.46 -245.031 1048.5 -259.998L1046.94 -258.749ZM1042.72 -72.257C984.008 -48.0843 960.633 1.38955 937.601 32.46C926.036 48.0613 914.681 58.8891 899.154 60.1883C883.57 61.4921 863.434 53.2323 834.249 29.5807L832.989 31.1345C862.24 54.8387 882.912 63.5542 899.321 62.1813C915.785 60.8037 927.605 49.3025 939.208 33.651C962.51 2.21598 985.439 -46.5109 1043.48 -70.4076L1042.72 -72.257ZM589.344 -225.894C595.36 -294.139 636.786 -336.999 691.508 -354.883C746.28 -372.784 814.393 -365.654 873.57 -333.738L874.52 -335.499C814.921 -367.641 746.241 -374.875 690.886 -356.784C635.48 -338.676 593.445 -295.189 587.351 -226.07L589.344 -225.894ZM873.57 -333.738C909.523 -314.348 937.102 -309.224 959.618 -310.825C982.114 -312.424 999.455 -320.737 1014.86 -327.987C1030.32 -335.269 1043.68 -341.39 1058.53 -339.136C1073.36 -336.886 1089.92 -326.233 1111.52 -299.192L1113.08 -300.441C1091.38 -327.608 1074.41 -338.749 1058.83 -341.113C1043.28 -343.473 1029.36 -337.028 1014 -329.797C998.581 -322.535 981.553 -314.39 959.476 -312.82C937.418 -311.251 910.216 -316.247 874.52 -335.499L873.57 -333.738ZM832.887 79.3442C813.105 63.3129 796.451 54.0727 780.595 48.7893C764.739 43.506 749.741 42.2 733.319 41.9607C700.496 41.4825 661.908 45.2555 598.687 30.3545L598.228 32.3012C661.72 47.2661 700.605 43.4842 733.29 43.9604C749.622 44.1984 764.387 45.4968 779.962 50.6867C795.537 55.8764 811.983 64.9779 831.628 80.898L832.887 79.3442ZM598.687 30.3545C560.184 21.2796 539.878 9.31741 530.978 -5.40973C522.106 -20.0919 524.38 -37.8508 531.979 -59.1081C535.771 -69.7161 540.861 -81.123 546.476 -93.3689C552.085 -105.603 558.214 -118.67 564.056 -132.55C575.741 -160.316 586.303 -191.406 589.344 -225.894L587.351 -226.07C584.337 -191.877 573.861 -161.005 562.212 -133.326C556.387 -119.484 550.276 -106.457 544.658 -94.2024C539.044 -81.9589 533.92 -70.4803 530.095 -59.7813C522.461 -38.4244 519.895 -19.8829 529.267 -4.3753C538.611 11.0873 559.632 23.2044 598.228 32.3012L598.687 30.3545ZM1111.52 -299.192L1111.89 -298.725L1113.45 -299.974L1113.08 -300.441L1111.52 -299.192ZM1111.89 -298.725C1127.56 -279.108 1144.52 -257.875 1158.78 -236.064C1173.05 -214.248 1184.57 -191.922 1189.39 -170.138C1194.21 -148.383 1192.36 -127.198 1179.91 -107.56C1167.45 -87.8926 1144.28 -69.6551 1106.24 -53.9904L1107 -52.141C1145.26 -67.893 1168.83 -86.3441 1181.6 -106.489C1194.39 -126.664 1196.26 -148.414 1191.35 -170.571C1186.44 -192.699 1174.78 -215.26 1160.46 -237.158C1146.14 -259.062 1129.11 -280.37 1113.45 -299.974L1111.89 -298.725ZM1106.24 -53.9904C1029.45 -22.3733 998.903 42.3086 968.695 83.0591C953.542 103.5 938.598 117.786 918.116 119.5C897.578 121.218 871.122 110.33 832.887 79.3442L831.628 80.898C869.928 111.936 896.92 123.281 918.283 121.493C939.702 119.701 955.112 104.742 970.302 84.2502C1000.78 43.1351 1030.88 -20.7999 1107 -52.141L1106.24 -53.9904ZM529.99 -246.751C537.439 -331.237 588.733 -384.308 656.476 -406.447C724.27 -428.604 808.559 -419.776 881.78 -380.286L882.729 -382.046C809.087 -421.763 724.232 -430.695 655.855 -408.348C587.427 -385.985 535.523 -332.288 527.998 -246.926L529.99 -246.751ZM881.78 -380.286C926.205 -356.326 960.261 -350.005 988.048 -351.981C1015.81 -353.955 1037.22 -364.214 1056.27 -373.18C1075.38 -382.178 1091.96 -389.785 1110.41 -386.985C1128.83 -384.19 1149.35 -370.96 1176.07 -337.509L1177.63 -338.758C1150.81 -372.335 1129.88 -386.053 1110.71 -388.963C1091.56 -391.868 1074.42 -383.937 1055.41 -374.99C1036.35 -366.013 1015.25 -355.921 987.906 -353.976C960.577 -352.033 926.898 -358.225 882.729 -382.046L881.78 -380.286ZM831.215 130.877C806.77 111.068 786.203 99.6588 766.63 93.1371C747.058 86.6154 728.541 85.0014 708.246 84.7057C667.677 84.1147 619.928 88.7811 541.724 70.3487L541.265 72.2953C619.741 90.7916 667.786 86.1165 708.217 86.7055C728.422 86.9999 746.706 88.6063 765.998 95.0345C785.289 101.463 805.648 112.733 829.955 132.431L831.215 130.877ZM541.724 70.3487C494.104 59.125 468.912 44.3156 457.855 26.0187C446.825 7.76681 449.671 -14.2843 459.072 -40.5805C463.764 -53.7079 470.063 -67.8209 477.005 -82.9624C483.942 -98.0925 491.519 -114.245 498.739 -131.403C513.183 -165.725 526.233 -204.141 529.99 -246.751L527.998 -246.926C524.267 -204.612 511.303 -166.413 496.896 -132.179C489.691 -115.058 482.133 -98.9466 475.187 -83.7959C468.246 -68.6567 461.914 -54.4721 457.188 -41.2537C447.753 -14.858 444.615 7.97582 456.144 27.0532C467.645 46.0856 493.553 61.0498 541.265 72.2953L541.724 70.3487ZM1176.07 -337.509L1176.53 -336.932L1178.09 -338.18L1177.63 -338.758L1176.07 -337.509ZM1176.53 -336.932C1195.91 -312.678 1216.89 -286.413 1234.53 -259.434C1252.17 -232.449 1266.43 -204.816 1272.41 -177.839C1278.38 -150.892 1276.08 -124.63 1260.65 -100.284C1245.21 -75.9095 1216.51 -53.3337 1169.45 -33.9542L1170.21 -32.1049C1217.49 -51.5716 1246.59 -74.3609 1262.34 -99.2136C1278.11 -124.096 1280.42 -150.923 1274.36 -178.272C1268.31 -205.592 1253.9 -233.461 1236.2 -260.528C1218.5 -287.601 1197.46 -313.939 1178.09 -338.18L1176.53 -336.932ZM1169.45 -33.9542C1074.58 5.10719 1036.86 84.9972 999.478 135.428C980.738 160.709 962.205 178.453 936.768 180.581C911.276 182.714 878.499 169.197 831.215 130.877L829.955 132.431C877.305 170.803 910.617 184.776 936.935 182.574C963.309 180.368 982.307 161.95 1001.08 136.619C1038.74 85.8237 1076.01 6.68061 1170.21 -32.1049L1169.45 -33.9542ZM470.636 -267.607C479.517 -368.336 540.68 -431.616 621.445 -458.012C702.261 -484.424 802.724 -473.897 889.99 -426.833L890.939 -428.593C803.252 -475.885 702.222 -486.515 620.824 -459.913C539.374 -433.293 477.602 -369.386 468.644 -267.783L470.636 -267.607ZM889.99 -426.833C942.887 -398.304 983.42 -390.787 1016.48 -393.137C1049.52 -395.487 1074.98 -407.691 1097.67 -418.374C1120.43 -429.087 1140.24 -438.179 1162.28 -434.835C1184.3 -431.494 1208.78 -415.687 1240.62 -375.826L1242.19 -377.075C1210.24 -417.062 1185.35 -433.357 1162.58 -436.812C1139.84 -440.263 1119.47 -430.846 1096.82 -420.183C1074.11 -409.49 1048.95 -397.452 1016.34 -395.132C983.736 -392.814 943.58 -400.203 890.939 -428.593L889.99 -426.833ZM829.542 182.41C800.436 158.823 775.955 145.245 752.665 137.485C729.377 129.725 707.34 127.803 683.173 127.451C634.858 126.747 577.948 132.307 484.761 110.343L484.302 112.289C577.761 134.317 634.967 128.749 683.143 129.451C707.222 129.801 729.025 131.716 752.033 139.382C775.041 147.049 799.314 160.488 828.283 183.964L829.542 182.41ZM484.761 110.343C428.025 96.9704 397.946 79.3139 384.732 57.4472C371.545 35.6256 374.963 9.28214 386.165 -22.0528C391.758 -37.6997 399.265 -54.5188 407.534 -72.5559C415.799 -90.5818 424.823 -109.819 433.423 -130.255C450.626 -171.133 466.164 -216.876 470.636 -267.607L468.644 -267.783C464.197 -217.347 448.746 -171.822 431.579 -131.031C422.995 -110.633 413.99 -91.4358 405.716 -73.3895C397.448 -55.3546 389.907 -38.4639 384.281 -22.7261C373.044 8.7085 369.335 35.8346 383.02 58.4817C396.679 81.0838 427.473 98.8953 484.302 112.289L484.761 110.343ZM1240.62 -375.826L1241.17 -375.139L1242.74 -376.387L1242.19 -377.075L1240.62 -375.826ZM1241.17 -375.139C1264.25 -346.247 1289.25 -314.952 1310.27 -282.804C1331.3 -250.65 1348.3 -217.709 1355.43 -185.54C1362.55 -153.401 1359.81 -122.061 1341.4 -93.0086C1322.96 -63.9263 1288.75 -37.0124 1232.66 -13.918L1233.42 -12.0687C1289.72 -35.2502 1324.35 -62.3777 1343.09 -91.938C1361.84 -121.528 1364.59 -153.432 1357.38 -185.973C1350.18 -218.485 1333.03 -251.662 1311.95 -283.898C1290.87 -316.14 1265.81 -347.508 1242.74 -376.387L1241.17 -375.139ZM1232.66 -13.918C1119.71 32.5877 1074.82 127.686 1030.26 187.796C1007.93 217.918 985.811 239.12 955.42 241.662C924.973 244.21 885.877 228.063 829.542 182.41L828.283 183.964C884.682 229.67 924.315 246.272 955.587 243.656C986.915 241.034 1009.5 219.159 1031.87 188.987C1076.7 128.512 1121.14 34.1611 1233.42 -12.0687L1232.66 -13.918ZM411.593 -290.233C421.906 -407.204 492.938 -480.694 586.724 -511.346C680.562 -542.014 797.2 -529.789 898.51 -475.15L899.46 -476.91C797.728 -531.776 680.524 -544.105 586.103 -513.247C491.632 -482.371 419.99 -408.254 409.601 -290.408L411.593 -290.233ZM898.51 -475.15C959.88 -442.052 1006.89 -433.338 1045.22 -436.063C1083.53 -438.787 1113.06 -452.937 1139.39 -465.336C1165.8 -477.766 1188.83 -488.344 1214.47 -484.454C1240.08 -480.567 1268.53 -462.184 1305.49 -415.913L1307.05 -417.161C1269.99 -463.558 1241.13 -482.43 1214.77 -486.431C1188.43 -490.428 1164.84 -479.524 1138.54 -467.146C1112.18 -454.736 1082.97 -440.752 1045.08 -438.058C1007.21 -435.366 960.572 -443.95 899.46 -476.91L898.51 -475.15ZM828.18 232.174C794.412 204.808 766.017 189.062 739.011 180.063C712.006 171.065 686.45 168.835 658.41 168.426C602.349 167.61 536.279 174.063 428.109 148.567L427.65 150.514C536.092 176.073 602.458 169.611 658.381 170.426C686.332 170.833 711.654 173.056 738.379 181.961C765.104 190.865 793.29 206.473 826.921 233.728L828.18 232.174ZM428.109 148.567C362.256 133.046 327.291 112.542 311.92 87.1061C296.575 61.7147 300.566 31.079 313.568 -5.29476C320.062 -23.461 328.777 -42.9862 338.374 -63.9191C347.966 -84.8406 358.438 -107.164 368.417 -130.877C388.379 -178.311 406.404 -231.381 411.593 -290.233L409.601 -290.408C404.438 -231.851 386.499 -179 366.574 -131.653C356.61 -107.977 346.157 -85.6947 336.556 -64.7526C326.96 -43.822 318.212 -24.2253 311.685 -5.96799C298.647 30.5053 294.365 61.9237 310.208 88.1405C326.024 114.312 361.705 134.971 427.65 150.514L428.109 148.567ZM1305.49 -415.913L1306.13 -415.115L1307.69 -416.363L1307.05 -417.161L1305.49 -415.913ZM1306.13 -415.115C1332.91 -381.585 1361.93 -345.26 1386.33 -307.943C1410.74 -270.62 1430.48 -232.372 1438.75 -195.011C1447.03 -157.679 1443.85 -121.263 1422.45 -87.5025C1401.03 -53.7127 1361.29 -22.4606 1296.18 4.34853L1296.94 6.19792C1362.26 -20.6984 1402.42 -52.1641 1424.14 -86.4318C1445.88 -120.729 1449.07 -157.71 1440.71 -195.444C1432.35 -233.148 1412.46 -271.632 1388 -309.037C1363.54 -346.448 1334.46 -382.847 1307.69 -416.363L1306.13 -415.115ZM1296.18 4.34853C1165.15 58.2987 1113.09 168.605 1061.36 238.396C1035.44 273.357 1009.73 298.017 974.383 300.974C938.981 303.936 893.565 285.161 828.18 232.174L826.921 233.728C892.37 286.767 938.323 305.998 974.549 302.967C1010.83 299.931 1037.01 274.598 1062.96 239.587C1114.97 169.431 1166.58 59.8721 1296.94 6.19792L1296.18 4.34853ZM350.774 -313.17C362.518 -446.384 443.419 -530.084 550.228 -564.991C657.087 -599.915 789.9 -585.992 905.255 -523.778L906.204 -525.539C790.428 -587.979 657.049 -602.007 549.606 -566.892C442.113 -531.761 360.603 -447.434 348.781 -313.346L350.774 -313.17ZM905.255 -523.778C975.096 -486.111 1028.58 -476.201 1072.18 -479.301C1115.76 -482.4 1149.36 -498.496 1179.34 -512.611C1209.38 -526.756 1235.65 -538.82 1264.88 -534.384C1294.08 -529.953 1326.49 -508.992 1368.58 -456.311L1370.14 -457.56C1327.95 -510.366 1295.14 -531.815 1265.18 -536.362C1235.25 -540.904 1208.42 -528.515 1178.49 -514.42C1148.48 -500.295 1115.2 -484.365 1072.04 -481.296C1028.9 -478.228 975.789 -488.01 906.204 -525.539L905.255 -523.778ZM825.042 281.625C786.612 250.482 754.303 232.567 723.581 222.33C692.859 212.093 663.784 209.555 631.871 209.09C568.064 208.16 492.834 215.507 369.68 186.48L369.221 188.427C492.646 217.517 568.173 210.162 631.842 211.09C663.666 211.553 692.508 214.084 722.949 224.227C753.39 234.37 785.49 252.147 823.783 283.179L825.042 281.625ZM369.68 186.48C294.711 168.81 254.859 145.459 237.331 116.453C219.829 87.4921 224.392 52.5642 239.196 11.1515C246.59 -9.53416 256.513 -31.7654 267.437 -55.5939C278.357 -79.4111 290.276 -104.819 301.635 -131.811C324.356 -185.801 344.869 -246.197 350.774 -313.17L348.781 -313.346C342.903 -246.668 322.476 -186.49 299.792 -132.587C288.448 -105.633 276.548 -80.2652 265.619 -56.4275C254.696 -32.6012 244.74 -10.2984 237.313 10.4783C222.473 51.9905 217.619 87.7011 235.619 117.488C253.592 147.229 294.16 170.735 369.221 188.427L369.68 186.48ZM1368.58 -456.311L1369.3 -455.403L1370.86 -456.651L1370.14 -457.56L1368.58 -456.311ZM1369.3 -455.403C1399.79 -417.236 1432.83 -375.881 1460.61 -333.394C1488.39 -290.903 1510.88 -247.347 1520.3 -204.794C1529.73 -162.27 1526.11 -120.776 1501.73 -82.3084C1477.33 -43.811 1432.06 -8.22066 1357.92 22.3033L1358.68 24.1527C1433.03 -6.4585 1478.71 -42.2623 1503.42 -81.2377C1528.14 -120.242 1531.77 -162.301 1522.26 -205.226C1512.75 -248.123 1490.12 -291.915 1462.28 -334.489C1434.44 -377.068 1401.34 -418.497 1370.86 -456.651L1369.3 -455.403ZM1357.92 22.3033C1208.81 83.6978 1149.58 209.212 1090.67 288.683C1061.17 328.484 1031.87 356.602 991.569 359.974C951.213 363.351 899.476 341.946 825.042 281.625L823.783 283.179C898.282 343.553 950.554 365.413 991.736 361.967C1032.97 358.517 1062.74 329.726 1092.28 289.874C1151.46 210.039 1210.24 85.2712 1358.68 24.1527L1357.92 22.3033ZM291.42 -334.027C304.596 -483.482 395.366 -577.393 515.196 -616.556C635.077 -655.735 784.066 -640.113 913.464 -570.326L914.414 -572.086C784.594 -642.101 635.039 -657.827 514.575 -618.457C394.06 -579.07 302.681 -484.533 289.428 -334.202L291.42 -334.027ZM913.464 -570.326C991.778 -528.089 1051.74 -516.983 1100.61 -520.457C1149.46 -523.931 1187.12 -541.973 1220.75 -557.804C1254.44 -573.665 1283.93 -587.215 1316.75 -582.234C1349.55 -577.256 1385.93 -553.719 1433.13 -494.629L1434.69 -495.877C1387.39 -555.093 1350.61 -579.119 1317.05 -584.211C1283.53 -589.299 1253.48 -575.424 1219.9 -559.613C1186.25 -543.772 1148.9 -525.896 1100.47 -522.452C1052.06 -519.01 992.47 -529.988 914.414 -572.086L913.464 -570.326ZM823.37 333.158C780.278 298.237 744.055 278.153 709.616 266.677C675.178 255.202 642.584 252.356 606.798 251.835C535.245 250.793 450.854 259.032 312.717 226.474L312.258 228.421C450.666 261.043 535.354 252.794 606.768 253.835C642.466 254.355 674.826 257.193 708.984 268.575C743.142 279.956 779.156 299.902 822.111 334.712L823.37 333.158ZM312.717 226.474C228.632 206.656 183.893 180.458 164.208 147.882C144.549 115.351 149.684 76.1306 166.289 29.6791C174.584 6.47399 185.714 -18.4633 197.967 -45.1876C210.214 -71.9004 223.58 -100.394 236.319 -130.664C261.799 -191.21 284.799 -258.932 291.42 -334.027L289.428 -334.202C282.833 -259.403 259.918 -191.899 234.475 -131.44C221.752 -101.207 208.405 -72.7545 196.149 -46.0211C183.897 -19.2991 172.733 5.70973 164.406 29.0059C147.765 75.5569 142.338 115.56 162.496 148.916C182.626 182.227 228.081 208.581 312.258 228.421L312.717 226.474ZM1433.13 -494.629L1433.94 -493.609L1435.51 -494.858L1434.69 -495.877L1433.13 -494.629ZM1433.94 -493.609C1468.14 -450.805 1505.19 -404.419 1536.35 -356.764C1567.52 -309.103 1592.74 -260.24 1603.32 -212.495C1613.89 -164.778 1609.83 -118.208 1582.47 -75.0327C1555.09 -31.8278 1504.29 8.10069 1421.13 42.3394L1421.89 44.1888C1505.26 9.86278 1556.47 -30.2792 1584.16 -73.9621C1611.86 -117.674 1615.94 -164.809 1605.27 -212.927C1594.62 -261.016 1569.25 -310.116 1538.03 -357.859C1506.81 -405.607 1469.69 -452.066 1435.51 -494.858L1433.94 -493.609ZM1421.13 42.3394C1253.94 111.178 1187.54 251.901 1121.46 341.051C1088.36 385.693 1055.48 417.269 1010.22 421.055C964.91 424.847 906.854 400.813 823.37 333.158L822.111 334.712C905.659 402.42 964.252 426.909 1010.39 423.048C1056.58 419.183 1089.93 386.934 1123.06 342.242C1189.42 252.727 1255.37 112.752 1421.89 44.1888L1421.13 42.3394ZM232.377 -356.652C246.985 -522.351 347.624 -626.471 480.476 -669.889C613.379 -713.325 778.542 -696.005 921.985 -618.642L922.934 -620.403C779.07 -697.992 613.34 -715.416 479.854 -671.79C346.317 -628.148 245.07 -523.401 230.385 -356.828L232.377 -356.652ZM921.985 -618.642C1008.77 -571.837 1075.21 -559.534 1129.35 -563.383C1183.47 -567.231 1225.2 -587.22 1262.47 -604.766C1299.8 -622.344 1332.52 -637.38 1368.94 -631.853C1405.33 -626.33 1445.67 -600.215 1497.99 -534.715L1499.56 -535.963C1447.13 -601.59 1406.39 -628.193 1369.24 -633.83C1332.12 -639.463 1298.84 -624.102 1261.62 -606.576C1224.32 -589.019 1182.91 -569.196 1129.21 -565.378C1075.53 -561.561 1009.46 -573.736 922.934 -620.403L921.985 -618.642ZM822.008 382.922C774.254 344.222 734.118 321.969 695.963 309.256C657.808 296.542 621.694 293.388 582.035 292.811C502.737 291.655 409.184 300.788 256.065 264.699L255.606 266.645C408.997 302.799 502.846 293.657 582.006 294.81C621.576 295.387 657.456 298.533 695.33 311.153C733.204 323.773 773.132 345.887 820.749 384.476L822.008 382.922ZM256.065 264.699C162.863 242.732 113.238 213.686 91.395 177.541C69.5792 141.44 75.2862 97.9275 93.6926 46.4372C102.888 20.7127 115.227 -6.93061 128.807 -36.5506C142.381 -66.1592 157.195 -97.7382 171.313 -131.286C199.552 -198.388 225.04 -273.437 232.377 -356.652L230.385 -356.828C223.074 -273.908 197.672 -199.077 169.47 -132.062C155.367 -98.5516 140.573 -67.0133 126.988 -37.3841C113.41 -7.76647 101.038 19.9484 91.8093 45.764C73.3673 97.3538 67.3687 141.649 89.6833 178.575C111.971 215.456 162.312 244.656 255.606 266.645L256.065 264.699ZM1497.99 -534.715L1498.9 -533.586L1500.46 -534.834L1499.56 -535.963L1497.99 -534.715ZM1498.9 -533.586C1536.8 -486.143 1577.87 -434.728 1612.41 -381.904C1646.95 -329.074 1674.92 -274.903 1686.65 -221.965C1698.37 -169.057 1693.87 -117.41 1663.52 -69.5268C1633.16 -21.6142 1576.83 22.6525 1484.65 60.6061L1485.42 62.4555C1577.81 24.4146 1634.54 -20.0656 1665.21 -68.4561C1695.9 -116.876 1700.41 -169.088 1688.6 -222.398C1676.8 -275.679 1648.68 -330.086 1614.08 -382.998C1579.48 -435.916 1538.35 -487.405 1500.46 -534.834L1498.9 -533.586ZM1484.65 60.6061C1299.38 136.889 1225.81 292.82 1152.55 391.651C1115.87 441.132 1079.39 476.166 1029.18 480.367C978.918 484.573 914.542 457.911 822.008 382.922L820.749 384.476C913.347 459.517 978.26 486.635 1029.35 482.36C1080.5 478.081 1117.44 442.373 1154.16 392.842C1227.69 293.646 1300.81 138.463 1485.42 62.4555L1484.65 60.6061ZM173.023 -377.509C189.064 -559.449 299.571 -673.779 445.444 -721.454C591.369 -769.145 772.707 -750.126 930.195 -665.19L931.144 -666.95C773.235 -752.114 591.331 -771.237 444.823 -723.355C298.264 -675.456 187.148 -560.499 171.031 -377.684L173.023 -377.509ZM930.195 -665.19C1025.45 -613.815 1098.37 -600.315 1157.78 -604.539C1217.17 -608.762 1262.96 -630.697 1303.88 -649.959C1344.86 -669.253 1380.8 -685.775 1420.81 -679.702C1460.8 -673.634 1505.1 -644.942 1562.55 -573.032L1564.11 -574.281C1506.56 -646.317 1461.85 -675.496 1421.11 -681.679C1380.4 -687.858 1343.9 -671.011 1303.02 -651.769C1262.09 -632.496 1216.61 -610.727 1157.64 -606.534C1098.69 -602.343 1026.14 -615.714 931.144 -666.95L930.195 -665.19ZM820.336 434.455C767.92 391.977 723.87 367.556 681.998 353.604C640.127 339.652 600.494 336.19 556.962 335.556C469.917 334.288 367.205 344.314 199.102 304.693L198.643 306.64C367.017 346.324 470.026 336.289 556.933 337.555C600.375 338.188 639.775 341.643 681.366 355.501C722.956 369.359 766.798 393.642 819.077 436.009L820.336 434.455ZM199.102 304.693C96.7841 280.577 42.2721 248.684 18.2719 208.969C-5.70115 169.299 0.57801 121.494 20.7857 64.9648C30.8821 36.7208 44.4281 6.37148 59.3357 -26.1442C74.2381 -58.6485 90.499 -93.3128 105.997 -130.139C136.994 -203.796 164.97 -286.172 173.023 -377.509L171.031 -377.684C163.004 -286.643 135.114 -204.485 104.153 -130.915C88.6714 -94.1262 72.4295 -59.5026 57.5177 -26.9778C42.6111 5.53563 29.0314 35.9566 18.9024 64.2916C-1.34085 120.92 -7.91168 169.508 16.5602 210.004C41.0048 250.454 96.2326 282.502 198.643 306.64L199.102 304.693ZM1562.55 -573.032L1563.54 -571.793L1565.1 -573.041L1564.11 -574.281L1562.55 -573.032ZM1563.54 -571.793C1605.14 -519.713 1650.23 -463.267 1688.15 -405.274C1726.08 -347.275 1756.79 -287.796 1769.67 -229.667C1782.54 -171.566 1777.6 -114.842 1744.27 -62.2512C1710.92 -9.63109 1649.06 38.9738 1547.86 80.6422L1548.63 82.4915C1650.04 40.7359 1712.3 -8.08248 1745.96 -61.1805C1779.63 -114.308 1784.58 -171.597 1771.62 -230.099C1758.66 -288.573 1727.81 -348.287 1689.83 -406.368C1651.85 -464.454 1606.69 -520.974 1565.1 -573.041L1563.54 -571.793ZM1547.86 80.6422C1344.51 164.37 1263.77 335.508 1183.33 444.019C1143.07 498.341 1103 536.833 1047.84 541.448C992.616 546.069 921.919 516.777 820.336 434.455L819.077 436.009C920.725 518.384 991.957 548.131 1048 543.441C1104.1 538.747 1144.64 499.582 1184.94 445.21C1265.65 336.335 1345.94 165.943 1548.63 82.4915L1547.86 80.6422Z" fill="white" fill-opacity="0.2"/>
</svg>
